<?xml version="1.0" standalone="no"?><svg width="1169.9966089725494" height="1440" xmlns="http://www.w3.org/2000/svg" xmlns:xlink="http://www.w3.org/1999/xlink"><style>body { font-family: sans-serif; padding: 0px; margin: 0px; }line.bg { stroke: rgba(3, 148, 172, 0.7); stroke-width: 1; }circle.bg { fill: rgba(100, 220, 240, 0.7); }line.bg-sub { stroke: rgba(140, 240, 240, 0.5); stroke-width: 1; }rect, path, circle { fill: none; stroke-width: 2; stroke-linejoin: round; }pattern line { vector-effect: non-scaling-stroke; }.zoomed-out pattern line { vector-effect: none; }text { stroke-width: 0; font-family: sans-serif; }text tspan { vector-effect: non-scaling-stroke; white-space: pre; }.ui-dark { background: rgb(51, 51, 51); }.ui-dark line.bg { stroke: rgba(172, 232, 242, 0.57); stroke-width: 1; }.ui-dark circle.bg { fill: rgba(100, 220, 240, 0.3); }.ui-dark line.bg-sub { stroke: rgba(140, 240, 240, 0.1); stroke-width: 1; }rect.marquee { fill: rgba(234, 255, 231, 0.3); stroke: rgb(98, 137, 95); stroke-width: 1; stroke-dasharray: 4; vector-effect: non-scaling-stroke; }rect.highlight { fill: blue; opacity: 0.5; }.bg rect { stroke: rgba(3, 148, 172, 0.7); stroke-width: 1; }</style><defs class="ic"></defs><g transform="translate(-105.00056517124176, 60)"><defs><pattern id="pattern_bg" viewBox="0 0 60 60" width="0.044642857142857144" height="0.04106776180698152" patternTransform="scale(0.5 0.5) translate(530.7771524412699 642.7800593385783)"><line class="bg" x1="0" y1="0" x2="60" y2="0"></line><line class="bg" x1="0" y1="0" y2="60" x2="0"></line><line class="bg-sub" x1="0" y1="15" x2="60" y2="15"></line><line class="bg-sub" y1="0" x1="15" y2="60" x2="15"></line><line class="bg-sub" x1="0" y1="30" x2="60" y2="30"></line><line class="bg-sub" y1="0" x1="30" y2="60" x2="30"></line><line class="bg-sub" x1="0" y1="45" x2="60" y2="45"></line><line class="bg-sub" y1="0" x1="45" y2="60" x2="45"></line></pattern></defs><g class="bg" style="visibility: hidden;"><rect x="-530.7771524412699" y="-642.7800593385783" width="2688" height="2922" style="fill: url(&quot;#pattern_bg&quot;);"></rect></g><g class="u current" data-layer="Layer 1" style="visibility: visible;"><path d="M 300 180 L 300 720 L 360 720 L 360.00000000000006 180.07270665950216 Z" class="" stroke="rgba(0, 0, 0, 1)" style="fill: rgba(0, 0, 0, 0); stroke-width: 2; stroke-linejoin: round;" data-ki=""></path><path d="M 300 240 L 361.22058602500135 240" class="" stroke="rgba(0, 0, 0, 1)" style="fill: rgba(0, 0, 0, 0); stroke-width: 2; stroke-linejoin: round;" data-ki=""></path><path d="M 300 300 L 360 300" class="" stroke="rgba(0, 0, 0, 1)" style="fill: rgba(0, 0, 0, 0); stroke-width: 2; stroke-linejoin: round;" data-ki=""></path><path d="M 300 360 L 360.31819753573774 360" class="" stroke="rgba(0, 0, 0, 1)" style="fill: rgba(0, 0, 0, 0); stroke-width: 2; stroke-linejoin: round;" data-ki=""></path><path d="M 300 420 L 360 420" class="" stroke="rgba(0, 0, 0, 1)" style="fill: rgba(0, 0, 0, 0); stroke-width: 2; stroke-linejoin: round;" data-ki=""></path><path d="M 300 480 L 359.52965483634324 480" class="" stroke="rgba(0, 0, 0, 1)" style="fill: rgba(0, 0, 0, 0); stroke-width: 2; stroke-linejoin: round;" data-ki=""></path><path d="M 300 540 L 361.11482699443934 540" class="" stroke="rgba(0, 0, 0, 1)" style="fill: rgba(0, 0, 0, 0); stroke-width: 2; stroke-linejoin: round;" data-ki=""></path><path d="M 300 600 L 360 600" class="" stroke="rgba(0, 0, 0, 1)" style="fill: rgba(0, 0, 0, 0); stroke-width: 2; stroke-linejoin: round;" data-ki=""></path><path d="M 300 660 L 360 660" class="" stroke="rgba(0, 0, 0, 1)" style="fill: rgba(0, 0, 0, 0); stroke-width: 2; stroke-linejoin: round;" data-ki=""></path><path d="M 360 180 L 480 180 L 480 720 L 360 720" class="" stroke="rgba(0, 0, 0, 1)" style="fill: rgba(0, 0, 0, 0); stroke-width: 2; stroke-linejoin: round;" data-ki=""></path><path d="M 480 660 L 360 660" class="" stroke="rgba(0, 0, 0, 1)" style="fill: rgba(0, 0, 0, 0); stroke-width: 2; stroke-linejoin: round;" data-ki=""></path><path d="M 360 600 L 481.3045501122695 600" class="" stroke="rgba(0, 0, 0, 1)" style="fill: rgba(0, 0, 0, 0); stroke-width: 2; stroke-linejoin: round;" data-ki=""></path><path d="M 480 540 L 360 540" class="" stroke="rgba(0, 0, 0, 1)" style="fill: rgba(0, 0, 0, 0); stroke-width: 2; stroke-linejoin: round;" data-ki=""></path><path d="M 360 480 L 480 480" class="" stroke="rgba(0, 0, 0, 1)" style="fill: rgba(0, 0, 0, 0); stroke-width: 2; stroke-linejoin: round;" data-ki=""></path><path d="M 360 420 L 480.4655469321233 420" class="" stroke="rgba(0, 0, 0, 1)" style="fill: rgba(0, 0, 0, 0); stroke-width: 2; stroke-linejoin: round;" data-ki=""></path><path d="M 360 360 L 480.4711511504241 360" class="" stroke="rgba(0, 0, 0, 1)" style="fill: rgba(0, 0, 0, 0); stroke-width: 2; stroke-linejoin: round;" data-ki=""></path><path d="M 360 300 L 481.268775587554 300" class="" stroke="rgba(0, 0, 0, 1)" style="fill: rgba(0, 0, 0, 0); stroke-width: 2; stroke-linejoin: round;" data-ki=""></path><path d="M 480 240 L 352.98173627836337 239.99999999999997" class="" stroke="rgba(0, 0, 0, 1)" style="fill: rgba(0, 0, 0, 0); stroke-width: 2; stroke-linejoin: round;" data-ki=""></path><path d="M 420 180 L 420 720" class="" stroke="rgba(0, 0, 0, 1)" style="fill: rgba(0, 0, 0, 0); stroke-width: 2; stroke-linejoin: round;" data-ki=""></path><path d="M 660 960 Q 480 960, 480 780 Q 420 780, 420 780" class="" stroke="rgba(0, 0, 0, 1)" style="fill: rgba(0, 0, 0, 0); stroke-width: 2; stroke-linejoin: round;" data-ki=""></path><path d="M 420 780 Q 420 1020, 660 1020 Q 660 960, 660 960" class="" stroke="rgba(0, 0, 0, 1)" style="fill: rgba(0, 0, 0, 0); stroke-width: 2; stroke-linejoin: round;" data-ki=""></path><path d="M 360 780 Q 361.7712322597877 1080, 660 1080 Q 657.6245928685465 1018.6285580532204, 660 1020" class="" stroke="rgba(0, 0, 0, 1)" style="fill: rgba(0, 0, 0, 0); stroke-width: 2; stroke-linejoin: round;" data-ki=""></path><path d="M 420 780 Q 356.94838581537 780, 356.94838581537 780" class="" stroke="rgba(0, 0, 0, 1)" style="fill: rgba(0, 0, 0, 0); stroke-width: 2; stroke-linejoin: round;" data-ki=""></path><path d="M 360 780 Q 300 780, 300 780" class="" stroke="rgba(0, 0, 0, 1)" style="fill: rgba(0, 0, 0, 0); stroke-width: 2; stroke-linejoin: round;" data-ki=""></path><path d="M 300 780 Q 300 1140, 660 1140 Q 660 1080, 660 1080" class="" stroke="rgba(0, 0, 0, 1)" style="fill: rgba(0, 0, 0, 0); stroke-width: 2; stroke-linejoin: round;" data-ki=""></path><path d="M 492.25726657232246 858.5621937580049 L 431.6759496764738 874.7949086966615" class="" stroke="rgba(0, 0, 0, 1)" style="fill: rgba(0, 0, 0, 0); stroke-width: 2; stroke-linejoin: round;" data-ki=""></path><path d="M 558.8352544315555 938.6487588640389 L 528.9195143473918 990.4643406358355" class="" stroke="rgba(0, 0, 0, 1)" style="fill: rgba(0, 0, 0, 0); stroke-width: 2; stroke-linejoin: round;" data-ki=""></path><path d="M 471.99440070212114 952.1573361108397 L 362.0848941276861 1015.6136193180887" class="" stroke="rgba(0, 0, 0, 1)" style="fill: rgba(0, 0, 0, 0); stroke-width: 2; stroke-linejoin: round;" data-ki=""></path><path d="M 430.503770586947 874.9654661291204 L 314.04598366020593 906.1702360884565" class="" stroke="rgba(0, 0, 0, 1)" style="fill: rgba(0, 0, 0, 0); stroke-width: 2; stroke-linejoin: round;" data-ki=""></path><path d="M 530.8532015631822 988.8234743521564 L 466.75823370359285 1099.8392151944595" class="" stroke="rgba(0, 0, 0, 1)" style="fill: rgba(0, 0, 0, 0); stroke-width: 2; stroke-linejoin: round;" data-ki=""></path><path d="M 300 180 L 300 720 L 360 720 L 360.00000000000006 180.07270665950216 Z" class="" stroke="rgba(0, 0, 0, 1)" style="fill: rgba(0, 0, 0, 0); stroke-width: 2; stroke-linejoin: round;" data-ki="" transform="translate(-6.7923 -6.05157) matrix(-1 0 0 1 1386.79 6.05157)"></path><path d="M 300 180 L 300 720 L 360 720 L 360.00000000000006 180.07270665950216 Z" class="ants" stroke="rgba(0, 0, 0, 1)" style="fill: rgba(0, 0, 0, 0); stroke-width: 2; stroke-linejoin: round;" data-ki="" transform="translate(-6.7923 -6.05157) matrix(-1 0 0 1 1386.79 6.05157)"></path><path d="M 300 240 L 361.22058602500135 240" class="" stroke="rgba(0, 0, 0, 1)" style="fill: rgba(0, 0, 0, 0); stroke-width: 2; stroke-linejoin: round;" data-ki="" transform="translate(-6.7923 -6.05157) matrix(-1 0 0 1 1386.79 6.05157)"></path><path d="M 300 240 L 361.22058602500135 240" class="ants" stroke="rgba(0, 0, 0, 1)" style="fill: rgba(0, 0, 0, 0); stroke-width: 2; stroke-linejoin: round;" data-ki="" transform="translate(-6.7923 -6.05157) matrix(-1 0 0 1 1386.79 6.05157)"></path><path d="M 300 300 L 360 300" class="" stroke="rgba(0, 0, 0, 1)" style="fill: rgba(0, 0, 0, 0); stroke-width: 2; stroke-linejoin: round;" data-ki="" transform="translate(-6.7923 -6.05157) matrix(-1 0 0 1 1386.79 6.05157)"></path><path d="M 300 300 L 360 300" class="ants" stroke="rgba(0, 0, 0, 1)" style="fill: rgba(0, 0, 0, 0); stroke-width: 2; stroke-linejoin: round;" data-ki="" transform="translate(-6.7923 -6.05157) matrix(-1 0 0 1 1386.79 6.05157)"></path><path d="M 300 360 L 360.31819753573774 360" class="" stroke="rgba(0, 0, 0, 1)" style="fill: rgba(0, 0, 0, 0); stroke-width: 2; stroke-linejoin: round;" data-ki="" transform="translate(-6.7923 -6.05157) matrix(-1 0 0 1 1386.79 6.05157)"></path><path d="M 300 360 L 360.31819753573774 360" class="ants" stroke="rgba(0, 0, 0, 1)" style="fill: rgba(0, 0, 0, 0); stroke-width: 2; stroke-linejoin: round;" data-ki="" transform="translate(-6.7923 -6.05157) matrix(-1 0 0 1 1386.79 6.05157)"></path><path d="M 300 420 L 360 420" class="" stroke="rgba(0, 0, 0, 1)" style="fill: rgba(0, 0, 0, 0); stroke-width: 2; stroke-linejoin: round;" data-ki="" transform="translate(-6.7923 -6.05157) matrix(-1 0 0 1 1386.79 6.05157)"></path><path d="M 300 420 L 360 420" class="ants" stroke="rgba(0, 0, 0, 1)" style="fill: rgba(0, 0, 0, 0); stroke-width: 2; stroke-linejoin: round;" data-ki="" transform="translate(-6.7923 -6.05157) matrix(-1 0 0 1 1386.79 6.05157)"></path><path d="M 300 480 L 359.52965483634324 480" class="" stroke="rgba(0, 0, 0, 1)" style="fill: rgba(0, 0, 0, 0); stroke-width: 2; stroke-linejoin: round;" data-ki="" transform="translate(-6.7923 -6.05157) matrix(-1 0 0 1 1386.79 6.05157)"></path><path d="M 300 480 L 359.52965483634324 480" class="ants" stroke="rgba(0, 0, 0, 1)" style="fill: rgba(0, 0, 0, 0); stroke-width: 2; stroke-linejoin: round;" data-ki="" transform="translate(-6.7923 -6.05157) matrix(-1 0 0 1 1386.79 6.05157)"></path><path d="M 300 540 L 361.11482699443934 540" class="" stroke="rgba(0, 0, 0, 1)" style="fill: rgba(0, 0, 0, 0); stroke-width: 2; stroke-linejoin: round;" data-ki="" transform="translate(-6.7923 -6.05157) matrix(-1 0 0 1 1386.79 6.05157)"></path><path d="M 300 540 L 361.11482699443934 540" class="ants" stroke="rgba(0, 0, 0, 1)" style="fill: rgba(0, 0, 0, 0); stroke-width: 2; stroke-linejoin: round;" data-ki="" transform="translate(-6.7923 -6.05157) matrix(-1 0 0 1 1386.79 6.05157)"></path><path d="M 300 600 L 360 600" class="" stroke="rgba(0, 0, 0, 1)" style="fill: rgba(0, 0, 0, 0); stroke-width: 2; stroke-linejoin: round;" data-ki="" transform="translate(-6.7923 -6.05157) matrix(-1 0 0 1 1386.79 6.05157)"></path><path d="M 300 600 L 360 600" class="ants" stroke="rgba(0, 0, 0, 1)" style="fill: rgba(0, 0, 0, 0); stroke-width: 2; stroke-linejoin: round;" data-ki="" transform="translate(-6.7923 -6.05157) matrix(-1 0 0 1 1386.79 6.05157)"></path><path d="M 300 660 L 360 660" class="" stroke="rgba(0, 0, 0, 1)" style="fill: rgba(0, 0, 0, 0); stroke-width: 2; stroke-linejoin: round;" data-ki="" transform="translate(-6.7923 -6.05157) matrix(-1 0 0 1 1386.79 6.05157)"></path><path d="M 300 660 L 360 660" class="ants" stroke="rgba(0, 0, 0, 1)" style="fill: rgba(0, 0, 0, 0); stroke-width: 2; stroke-linejoin: round;" data-ki="" transform="translate(-6.7923 -6.05157) matrix(-1 0 0 1 1386.79 6.05157)"></path><path d="M 360 180 L 480 180 L 480 720 L 360 720" class="" stroke="rgba(0, 0, 0, 1)" style="fill: rgba(0, 0, 0, 0); stroke-width: 2; stroke-linejoin: round;" data-ki="" transform="translate(-6.7923 -6.05157) matrix(-1 0 0 1 1386.79 6.05157)"></path><path d="M 360 180 L 480 180 L 480 720 L 360 720" class="ants" stroke="rgba(0, 0, 0, 1)" style="fill: rgba(0, 0, 0, 0); stroke-width: 2; stroke-linejoin: round;" data-ki="" transform="translate(-6.7923 -6.05157) matrix(-1 0 0 1 1386.79 6.05157)"></path><path d="M 480 660 L 360 660" class="" stroke="rgba(0, 0, 0, 1)" style="fill: rgba(0, 0, 0, 0); stroke-width: 2; stroke-linejoin: round;" data-ki="" transform="translate(-6.7923 -6.05157) matrix(-1 0 0 1 1386.79 6.05157)"></path><path d="M 480 660 L 360 660" class="ants" stroke="rgba(0, 0, 0, 1)" style="fill: rgba(0, 0, 0, 0); stroke-width: 2; stroke-linejoin: round;" data-ki="" transform="translate(-6.7923 -6.05157) matrix(-1 0 0 1 1386.79 6.05157)"></path><path d="M 360 600 L 481.3045501122695 600" class="" stroke="rgba(0, 0, 0, 1)" style="fill: rgba(0, 0, 0, 0); stroke-width: 2; stroke-linejoin: round;" data-ki="" transform="translate(-6.7923 -6.05157) matrix(-1 0 0 1 1386.79 6.05157)"></path><path d="M 360 600 L 481.3045501122695 600" class="ants" stroke="rgba(0, 0, 0, 1)" style="fill: rgba(0, 0, 0, 0); stroke-width: 2; stroke-linejoin: round;" data-ki="" transform="translate(-6.7923 -6.05157) matrix(-1 0 0 1 1386.79 6.05157)"></path><path d="M 480 540 L 360 540" class="" stroke="rgba(0, 0, 0, 1)" style="fill: rgba(0, 0, 0, 0); stroke-width: 2; stroke-linejoin: round;" data-ki="" transform="translate(-6.7923 -6.05157) matrix(-1 0 0 1 1386.79 6.05157)"></path><path d="M 480 540 L 360 540" class="ants" stroke="rgba(0, 0, 0, 1)" style="fill: rgba(0, 0, 0, 0); stroke-width: 2; stroke-linejoin: round;" data-ki="" transform="translate(-6.7923 -6.05157) matrix(-1 0 0 1 1386.79 6.05157)"></path><path d="M 360 480 L 480 480" class="" stroke="rgba(0, 0, 0, 1)" style="fill: rgba(0, 0, 0, 0); stroke-width: 2; stroke-linejoin: round;" data-ki="" transform="translate(-6.7923 -6.05157) matrix(-1 0 0 1 1386.79 6.05157)"></path><path d="M 360 480 L 480 480" class="ants" stroke="rgba(0, 0, 0, 1)" style="fill: rgba(0, 0, 0, 0); stroke-width: 2; stroke-linejoin: round;" data-ki="" transform="translate(-6.7923 -6.05157) matrix(-1 0 0 1 1386.79 6.05157)"></path><path d="M 360 420 L 480.4655469321233 420" class="" stroke="rgba(0, 0, 0, 1)" style="fill: rgba(0, 0, 0, 0); stroke-width: 2; stroke-linejoin: round;" data-ki="" transform="translate(-6.7923 -6.05157) matrix(-1 0 0 1 1386.79 6.05157)"></path><path d="M 360 420 L 480.4655469321233 420" class="ants" stroke="rgba(0, 0, 0, 1)" style="fill: rgba(0, 0, 0, 0); stroke-width: 2; stroke-linejoin: round;" data-ki="" transform="translate(-6.7923 -6.05157) matrix(-1 0 0 1 1386.79 6.05157)"></path><path d="M 360 360 L 480.4711511504241 360" class="" stroke="rgba(0, 0, 0, 1)" style="fill: rgba(0, 0, 0, 0); stroke-width: 2; stroke-linejoin: round;" data-ki="" transform="translate(-6.7923 -6.05157) matrix(-1 0 0 1 1386.79 6.05157)"></path><path d="M 360 360 L 480.4711511504241 360" class="ants" stroke="rgba(0, 0, 0, 1)" style="fill: rgba(0, 0, 0, 0); stroke-width: 2; stroke-linejoin: round;" data-ki="" transform="translate(-6.7923 -6.05157) matrix(-1 0 0 1 1386.79 6.05157)"></path><path d="M 360 300 L 481.268775587554 300" class="" stroke="rgba(0, 0, 0, 1)" style="fill: rgba(0, 0, 0, 0); stroke-width: 2; stroke-linejoin: round;" data-ki="" transform="translate(-6.7923 -6.05157) matrix(-1 0 0 1 1386.79 6.05157)"></path><path d="M 360 300 L 481.268775587554 300" class="ants" stroke="rgba(0, 0, 0, 1)" style="fill: rgba(0, 0, 0, 0); stroke-width: 2; stroke-linejoin: round;" data-ki="" transform="translate(-6.7923 -6.05157) matrix(-1 0 0 1 1386.79 6.05157)"></path><path d="M 480 240 L 352.98173627836337 239.99999999999997" class="" stroke="rgba(0, 0, 0, 1)" style="fill: rgba(0, 0, 0, 0); stroke-width: 2; stroke-linejoin: round;" data-ki="" transform="translate(-6.7923 -6.05157) matrix(-1 0 0 1 1386.79 6.05157)"></path><path d="M 480 240 L 352.98173627836337 239.99999999999997" class="ants" stroke="rgba(0, 0, 0, 1)" style="fill: rgba(0, 0, 0, 0); stroke-width: 2; stroke-linejoin: round;" data-ki="" transform="translate(-6.7923 -6.05157) matrix(-1 0 0 1 1386.79 6.05157)"></path><path d="M 420 180 L 420 720" class="" stroke="rgba(0, 0, 0, 1)" style="fill: rgba(0, 0, 0, 0); stroke-width: 2; stroke-linejoin: round;" data-ki="" transform="translate(-6.7923 -6.05157) matrix(-1 0 0 1 1386.79 6.05157)"></path><path d="M 420 180 L 420 720" class="ants" stroke="rgba(0, 0, 0, 1)" style="fill: rgba(0, 0, 0, 0); stroke-width: 2; stroke-linejoin: round;" data-ki="" transform="translate(-6.7923 -6.05157) matrix(-1 0 0 1 1386.79 6.05157)"></path><path d="M 660 960 Q 480 960, 480 780 Q 420 780, 420 780" class="" stroke="rgba(0, 0, 0, 1)" style="fill: rgba(0, 0, 0, 0); stroke-width: 2; stroke-linejoin: round;" data-ki="" transform="translate(-6.7923 -6.05157) matrix(-1 0 0 1 1386.79 6.05157)"></path><path d="M 660 960 Q 480 960, 480 780 Q 420 780, 420 780" class="ants" stroke="rgba(0, 0, 0, 1)" style="fill: rgba(0, 0, 0, 0); stroke-width: 2; stroke-linejoin: round;" data-ki="" transform="translate(-6.7923 -6.05157) matrix(-1 0 0 1 1386.79 6.05157)"></path><path d="M 420 780 Q 420 1020, 660 1020 Q 660 960, 660 960" class="" stroke="rgba(0, 0, 0, 1)" style="fill: rgba(0, 0, 0, 0); stroke-width: 2; stroke-linejoin: round;" data-ki="" transform="translate(-6.7923 -6.05157) matrix(-1 0 0 1 1386.79 6.05157)"></path><path d="M 420 780 Q 420 1020, 660 1020 Q 660 960, 660 960" class="ants" stroke="rgba(0, 0, 0, 1)" style="fill: rgba(0, 0, 0, 0); stroke-width: 2; stroke-linejoin: round;" data-ki="" transform="translate(-6.7923 -6.05157) matrix(-1 0 0 1 1386.79 6.05157)"></path><path d="M 360 780 Q 361.7712322597877 1080, 660 1080 Q 657.6245928685465 1018.6285580532204, 660 1020" class="" stroke="rgba(0, 0, 0, 1)" style="fill: rgba(0, 0, 0, 0); stroke-width: 2; stroke-linejoin: round;" data-ki="" transform="translate(-6.7923 -6.05157) matrix(-1 0 0 1 1386.79 6.05157)"></path><path d="M 360 780 Q 361.7712322597877 1080, 660 1080 Q 657.6245928685465 1018.6285580532204, 660 1020" class="ants" stroke="rgba(0, 0, 0, 1)" style="fill: rgba(0, 0, 0, 0); stroke-width: 2; stroke-linejoin: round;" data-ki="" transform="translate(-6.7923 -6.05157) matrix(-1 0 0 1 1386.79 6.05157)"></path><path d="M 420 780 Q 356.94838581537 780, 356.94838581537 780" class="" stroke="rgba(0, 0, 0, 1)" style="fill: rgba(0, 0, 0, 0); stroke-width: 2; stroke-linejoin: round;" data-ki="" transform="translate(-6.7923 -6.05157) matrix(-1 0 0 1 1386.79 6.05157)"></path><path d="M 420 780 Q 356.94838581537 780, 356.94838581537 780" class="ants" stroke="rgba(0, 0, 0, 1)" style="fill: rgba(0, 0, 0, 0); stroke-width: 2; stroke-linejoin: round;" data-ki="" transform="translate(-6.7923 -6.05157) matrix(-1 0 0 1 1386.79 6.05157)"></path><path d="M 360 780 Q 300 780, 300 780" class="" stroke="rgba(0, 0, 0, 1)" style="fill: rgba(0, 0, 0, 0); stroke-width: 2; stroke-linejoin: round;" data-ki="" transform="translate(-6.7923 -6.05157) matrix(-1 0 0 1 1386.79 6.05157)"></path><path d="M 360 780 Q 300 780, 300 780" class="ants" stroke="rgba(0, 0, 0, 1)" style="fill: rgba(0, 0, 0, 0); stroke-width: 2; stroke-linejoin: round;" data-ki="" transform="translate(-6.7923 -6.05157) matrix(-1 0 0 1 1386.79 6.05157)"></path><path d="M 300 780 Q 300 1140, 660 1140 Q 660 1080, 660 1080" class="" stroke="rgba(0, 0, 0, 1)" style="fill: rgba(0, 0, 0, 0); stroke-width: 2; stroke-linejoin: round;" data-ki="" transform="translate(-6.7923 -6.05157) matrix(-1 0 0 1 1386.79 6.05157)"></path><path d="M 300 780 Q 300 1140, 660 1140 Q 660 1080, 660 1080" class="ants" stroke="rgba(0, 0, 0, 1)" style="fill: rgba(0, 0, 0, 0); stroke-width: 2; stroke-linejoin: round;" data-ki="" transform="translate(-6.7923 -6.05157) matrix(-1 0 0 1 1386.79 6.05157)"></path><path d="M 492.25726657232246 858.5621937580049 L 431.6759496764738 874.7949086966615" class="" stroke="rgba(0, 0, 0, 1)" style="fill: rgba(0, 0, 0, 0); stroke-width: 2; stroke-linejoin: round;" data-ki="" transform="translate(-6.7923 -6.05157) matrix(-1 0 0 1 1386.79 6.05157)"></path><path d="M 492.25726657232246 858.5621937580049 L 431.6759496764738 874.7949086966615" class="ants" stroke="rgba(0, 0, 0, 1)" style="fill: rgba(0, 0, 0, 0); stroke-width: 2; stroke-linejoin: round;" transform="translate(-6.7923 -6.05157) matrix(-1 0 0 1 1386.79 6.05157)" data-ki=""></path><path d="M 558.8352544315555 938.6487588640389 L 528.9195143473918 990.4643406358355" class="" stroke="rgba(0, 0, 0, 1)" style="fill: rgba(0, 0, 0, 0); stroke-width: 2; stroke-linejoin: round;" data-ki="" transform="translate(-6.7923 -6.05157) matrix(-1 0 0 1 1386.79 6.05157)"></path><path d="M 558.8352544315555 938.6487588640389 L 528.9195143473918 990.4643406358355" class="ants" stroke="rgba(0, 0, 0, 1)" style="fill: rgba(0, 0, 0, 0); stroke-width: 2; stroke-linejoin: round;" transform="translate(-6.7923 -6.05157) matrix(-1 0 0 1 1386.79 6.05157)" data-ki=""></path><path d="M 471.99440070212114 952.1573361108397 L 362.0848941276861 1015.6136193180887" class="" stroke="rgba(0, 0, 0, 1)" style="fill: rgba(0, 0, 0, 0); stroke-width: 2; stroke-linejoin: round;" data-ki="" transform="translate(-6.7923 -6.05157) matrix(-1 0 0 1 1386.79 6.05157)"></path><path d="M 471.99440070212114 952.1573361108397 L 362.0848941276861 1015.6136193180887" class="ants" stroke="rgba(0, 0, 0, 1)" style="fill: rgba(0, 0, 0, 0); stroke-width: 2; stroke-linejoin: round;" transform="translate(-6.7923 -6.05157) matrix(-1 0 0 1 1386.79 6.05157)" data-ki=""></path><path d="M 430.503770586947 874.9654661291204 L 314.04598366020593 906.1702360884565" class="" stroke="rgba(0, 0, 0, 1)" style="fill: rgba(0, 0, 0, 0); stroke-width: 2; stroke-linejoin: round;" data-ki="" transform="translate(-6.7923 -6.05157) matrix(-1 0 0 1 1386.79 6.05157)"></path><path d="M 430.503770586947 874.9654661291204 L 314.04598366020593 906.1702360884565" class="ants" stroke="rgba(0, 0, 0, 1)" style="fill: rgba(0, 0, 0, 0); stroke-width: 2; stroke-linejoin: round;" transform="translate(-6.7923 -6.05157) matrix(-1 0 0 1 1386.79 6.05157)" data-ki=""></path><path d="M 530.8532015631822 988.8234743521564 L 466.75823370359285 1099.8392151944595" class="" stroke="rgba(0, 0, 0, 1)" style="fill: rgba(0, 0, 0, 0); stroke-width: 2; stroke-linejoin: round;" data-ki="" transform="translate(-6.7923 -6.05157) matrix(-1 0 0 1 1386.79 6.05157)"></path><path d="M 530.8532015631822 988.8234743521564 L 466.75823370359285 1099.8392151944595" class="ants" stroke="rgba(0, 0, 0, 1)" style="fill: rgba(0, 0, 0, 0); stroke-width: 2; stroke-linejoin: round;" transform="translate(-6.7923 -6.05157) matrix(-1 0 0 1 1386.79 6.05157)" data-ki=""></path></g></g></svg>